[img]http://a.imageshack.us/img830/1192/fabolouslights.png[/img]

[img]http://a.imageshack.us/img709/5757/fabolouslights2.png[/img]

[code]General
Complete name                    : Fabolous - Lights Out [KingPinVideos].mpg
Format                           : MPEG-PS
File size                        : 72.9 MiB
Duration                         : 3mn 37s
Overall bit rate                 : 2 813 Kbps
Writing library                  : encoded by TMPGEnc 4.0 XPress Version. 4.7.4.299

Video
ID                               : 224 (0xE0)
Format                           : MPEG Video
Format version                   : Version 1
Format settings, BVOP            : Yes
Format settings, Matrix          : Default
Duration                         : 3mn 37s
Bit rate mode                    : Variable
Bit rate                         : 2 573 Kbps
Nominal bit rate                 : 2 700 Kbps
Width                            : 384 pixels
Height                           : 208 pixels
Display aspect ratio             : 16:9
Frame rate                       : 29.970 fps
Resolution                       : 8 bits
Scan type                        : Progressive
Bits/(Pixel*Frame)               : 1.075
Stream size                      : 66.7 MiB (91%)
Writing library                  : TMPGEnc XPress 4.7.4.299

Audio
ID                               : 192 (0xC0)
Format                           : MPEG Audio
Format version                   : Version 1
Format profile                   : Layer 2
Duration                         : 3mn 37s
Bit rate mode                    : Constant
Bit rate                         : 128 Kbps
Channel(s)                       : 2 channels
Sampling rate                    : 48.0 KHz
Stream size                      : 3.32 MiB (5%)[/code]